<svg width="50" height="60" viewBox="0 0 50 60" fill="none" xmlns="http://www.w3.org/2000/svg">
<path d="M3.125 60H46.875C48.5979 60 50 58.7381 50 57.1875V17.8125C50 17.7806 49.9833 17.7544 49.9812 17.7244C49.9757 17.6831 49.9667 17.6425 49.9542 17.6025C49.9207 17.4725 49.8568 17.3504 49.7667 17.2444C49.7521 17.2275 49.7542 17.2069 49.7396 17.19L33.0729 0.315L33.0521 0.30375C32.9246 0.184572 32.7643 0.0978872 32.5875 0.0525C32.55 0.0425 32.5111 0.035625 32.4708 0.031875C32.4104 0.0225 32.3542 0 32.2917 0H3.125C1.40208 0 0 1.26187 0 2.8125V57.1875C0 58.7381 1.40208 60 3.125 60ZM33.3333 3.40313L46.6396 16.875H34.375C33.9167 16.875 33.3333 16.0875 33.3333 15.4688V3.40313ZM2.08333 2.8125C2.08333 2.56386 2.19308 2.3254 2.38843 2.14959C2.58378 1.97377 2.84873 1.875 3.125 1.875H31.25V15.4688C31.25 16.9856 32.6146 18.75 34.375 18.75H47.9167V57.1875C47.9167 57.4361 47.8069 57.6746 47.6116 57.8504C47.4162 58.0262 47.1513 58.125 46.875 58.125H3.125C2.54167 58.125 2.08333 57.7125 2.08333 57.1875V2.8125Z" fill="#654D4D"/>
<path d="M11.4584 26.25H38.5417C38.818 26.25 39.0829 26.1512 39.2783 25.9754C39.4736 25.7996 39.5834 25.5611 39.5834 25.3125C39.5834 25.0639 39.4736 24.8254 39.2783 24.6496C39.0829 24.4738 38.818 24.375 38.5417 24.375H11.4584C11.1821 24.375 10.9171 24.4738 10.7218 24.6496C10.5264 24.8254 10.4167 25.0639 10.4167 25.3125C10.4167 25.5611 10.5264 25.7996 10.7218 25.9754C10.9171 26.1512 11.1821 26.25 11.4584 26.25ZM11.4584 33.75H38.5417C38.818 33.75 39.0829 33.6512 39.2783 33.4754C39.4736 33.2996 39.5834 33.0611 39.5834 32.8125C39.5834 32.5639 39.4736 32.3254 39.2783 32.1496C39.0829 31.9738 38.818 31.875 38.5417 31.875H11.4584C11.1821 31.875 10.9171 31.9738 10.7218 32.1496C10.5264 32.3254 10.4167 32.5639 10.4167 32.8125C10.4167 33.0611 10.5264 33.2996 10.7218 33.4754C10.9171 33.6512 11.1821 33.75 11.4584 33.75ZM11.4584 18.75H23.9584C24.2346 18.75 24.4996 18.6512 24.6949 18.4754C24.8903 18.2996 25 18.0611 25 17.8125C25 17.5639 24.8903 17.3254 24.6949 17.1496C24.4996 16.9738 24.2346 16.875 23.9584 16.875H11.4584C11.1821 16.875 10.9171 16.9738 10.7218 17.1496C10.5264 17.3254 10.4167 17.5639 10.4167 17.8125C10.4167 18.0611 10.5264 18.2996 10.7218 18.4754C10.9171 18.6512 11.1821 18.75 11.4584 18.75ZM11.4584 41.25H38.5417C38.818 41.25 39.0829 41.1512 39.2783 40.9754C39.4736 40.7996 39.5834 40.5611 39.5834 40.3125C39.5834 40.0639 39.4736 39.8254 39.2783 39.6496C39.0829 39.4738 38.818 39.375 38.5417 39.375H11.4584C11.1821 39.375 10.9171 39.4738 10.7218 39.6496C10.5264 39.8254 10.4167 40.0639 10.4167 40.3125C10.4167 40.5611 10.5264 40.7996 10.7218 40.9754C10.9171 41.1512 11.1821 41.25 11.4584 41.25ZM11.4584 48.75H38.5417C38.818 48.75 39.0829 48.6512 39.2783 48.4754C39.4736 48.2996 39.5834 48.0611 39.5834 47.8125C39.5834 47.5639 39.4736 47.3254 39.2783 47.1496C39.0829 46.9738 38.818 46.875 38.5417 46.875H11.4584C11.1821 46.875 10.9171 46.9738 10.7218 47.1496C10.5264 47.3254 10.4167 47.5639 10.4167 47.8125C10.4167 48.0611 10.5264 48.2996 10.7218 48.4754C10.9171 48.6512 11.1821 48.75 11.4584 48.75Z" fill="#654D4D"/>
</svg>
