<svg width="56" height="56" viewBox="0 0 56 56" fill="none" xmlns="http://www.w3.org/2000/svg">
<path d="M5.93 50.07C8.8575 53 13.5725 53 23 53H33C42.4275 53 47.1425 53 50.07 50.07C52.9975 47.14 53 42.4275 53 33C53 30.075 53 27.605 52.9125 25.5M50.07 15.93C47.1425 13 42.4275 13 33 13H23C13.5725 13 8.8575 13 5.93 15.93C3.0025 18.86 3 23.5725 3 33C3 35.925 3 38.395 3.0875 40.5M28 3C32.715 3 35.07 3 36.535 4.465C38 5.93 38 8.285 38 13M19.465 4.465C18 5.93 18 8.285 18 13" stroke="#654D4D" stroke-width="4.75" stroke-linecap="round"/>
<path d="M28 41.3325C30.7625 41.3325 33 39.4675 33 37.1675C33 34.8675 30.7625 33 28 33C25.2375 33 23 31.135 23 28.8325C23 26.5325 25.2375 24.6675 28 24.6675M28 41.3325C25.2375 41.3325 23 39.4675 23 37.1675M28 41.3325V43M28 24.6675V23M28 24.6675C30.7625 24.6675 33 26.5325 33 28.8325" stroke="#654D4D" stroke-width="4.75" stroke-linecap="round"/>
</svg>
