<svg width="59" height="62" viewBox="0 0 59 62" fill="none" xmlns="http://www.w3.org/2000/svg">
<path d="M52.554 38.3642V16.1975L35.1373 4.01533L17.7207 16.1943V24.719H14.554V14.6775L35.1373 0L55.7207 14.6743V38.361L52.554 38.3642ZM37.0247 18.3255H39.5833V15.7668H37.0247V18.3255ZM30.6913 18.3255H33.25V15.7668H30.6913V18.3255ZM37.0247 24.6588H39.5833V22.1002H37.0247V24.6588ZM30.6913 24.6588H33.25V22.1002H30.6913V24.6588ZM12.6667 50.6635L36.6225 57.6523L55.5877 51.794C55.5243 50.8334 55.2372 50.141 54.7263 49.7167C54.2112 49.2923 53.6296 49.0802 52.9815 49.0802H37.9557C36.6172 49.0802 35.4033 49.0274 34.314 48.9218C33.2247 48.8163 32.1111 48.5651 30.9732 48.1682L24.0382 45.8945L25.1085 42.7658L31.521 45.0838C32.5386 45.4702 33.6954 45.7024 34.9917 45.7805C36.2858 45.8565 38.0591 45.9008 40.3117 45.9135C40.3117 44.9255 40.1301 44.1275 39.767 43.5195C39.4039 42.9115 38.8835 42.4872 38.2058 42.2465L19.9848 35.5585C19.8645 35.5184 19.7526 35.4888 19.6492 35.4698C19.5457 35.4508 19.4349 35.4403 19.3167 35.4382H12.6667V50.6635ZM0 58.0925V32.2715H19.2407C19.5362 32.2715 19.8402 32.3053 20.1527 32.3728C20.4651 32.4404 20.7554 32.5185 21.0235 32.6072L39.3237 39.311C40.4573 39.7417 41.4327 40.5154 42.2497 41.6322C43.0688 42.7489 43.4783 44.1761 43.4783 45.9135H52.9783C54.8868 45.9135 56.3477 46.5099 57.361 47.7027C58.3764 48.8976 58.8842 50.4123 58.8842 52.2468V54.1943L36.7808 61.0153L12.6635 53.9853V58.0925H0ZM3.16667 54.9258H9.5V35.4382H3.16667V54.9258Z" fill="#654D4D"/>
</svg>
