<svg width="126" height="60" viewBox="0 0 126 60" fill="none" xmlns="http://www.w3.org/2000/svg">
<path d="M118.5 9.5H83.5C80.75 9.5 78.5 11.75 78.5 14.5V49.5C78.5 52.2525 80.75 54.5 83.5 54.5H101V37H96V30.8125H101V25.6875C101 20.2775 104.03 16.4775 110.415 16.4775L114.923 16.4825V22.995H111.93C109.445 22.995 108.5 24.86 108.5 26.59V30.815H114.92L113.5 37H108.5V54.5H118.5C121.25 54.5 123.5 52.2525 123.5 49.5V14.5C123.5 11.75 121.25 9.5 118.5 9.5Z" fill="#F9F9F9"/>
<path d="M5 27.2222C5 16.7472 5 11.5083 8.25556 8.25556C11.5111 5.00278 16.7472 5 27.2222 5H32.7778C43.2528 5 48.4917 5 51.7444 8.25556C54.9972 11.5111 55 16.7472 55 27.2222V32.7778C55 43.2528 55 48.4917 51.7444 51.7444C48.4889 54.9972 43.2528 55 32.7778 55H27.2222C16.7472 55 11.5083 55 8.25556 51.7444C5.00278 48.4889 5 43.2528 5 32.7778V27.2222Z" stroke="#F0EEEC" stroke-width="8.33333"/>
<path d="M42.5 21.6666C44.8012 21.6666 46.6667 19.8011 46.6667 17.4999C46.6667 15.1987 44.8012 13.3333 42.5 13.3333C40.1989 13.3333 38.3334 15.1987 38.3334 17.4999C38.3334 19.8011 40.1989 21.6666 42.5 21.6666Z" fill="#F0EEEC"/>
<path d="M30 38.3334C34.6023 38.3334 38.3333 34.6025 38.3333 30.0001C38.3333 25.3977 34.6023 21.6667 30 21.6667C25.3976 21.6667 21.6666 25.3977 21.6666 30.0001C21.6666 34.6025 25.3976 38.3334 30 38.3334Z" stroke="#F0EEEC" stroke-width="8.33333"/>
</svg>
